<svg width="35" height="31" viewBox="0 0 35 31" fill="none" xmlns="http://www.w3.org/2000/svg">
<g clip-path="url(#clip0)">
<path d="M26.4323 9.43881C25.7943 9.06866 24.974 9.06866 24.2448 9.43881L19.1406 12.4925L15.6771 14.4358L10.6641 17.4896C10.026 17.8597 9.20573 17.8597 8.47656 17.4896L4.55729 15.0836C3.91927 14.7134 3.46354 13.9731 3.46354 13.1403V8.51344C3.46354 7.77314 3.82812 7.03284 4.55729 6.57016L8.47656 4.25672C9.11458 3.88657 9.9349 3.88657 10.6641 4.25672L14.5833 6.66269C15.2214 7.03284 15.6771 7.77314 15.6771 8.60598V11.6597L19.1406 9.62389V6.47762C19.1406 5.73732 18.776 4.99702 18.0469 4.53434L10.7552 0.185083C10.1172 -0.185067 9.29687 -0.185067 8.56771 0.185083L1.09375 4.62687C0.364583 4.99702 0 5.73732 0 6.47762V15.1761C0 15.9164 0.364583 16.6567 1.09375 17.1194L8.47656 21.4687C9.11458 21.8388 9.9349 21.8388 10.6641 21.4687L15.6771 18.5075L19.1406 16.4716L24.1536 13.5105C24.7917 13.1403 25.612 13.1403 26.3411 13.5105L30.2604 15.8239C30.8984 16.194 31.3542 16.9343 31.3542 17.7672V22.394C31.3542 23.1343 30.9896 23.8746 30.2604 24.3373L26.4323 26.6508C25.7943 27.0209 24.974 27.0209 24.2448 26.6508L20.3255 24.3373C19.6875 23.9672 19.2318 23.2269 19.2318 22.394V19.4328L15.7682 21.4687V24.5224C15.7682 25.2627 16.1328 26.003 16.862 26.4657L24.2448 30.8149C24.8828 31.1851 25.7031 31.1851 26.4323 30.8149L33.8151 26.4657C34.4531 26.0955 34.9089 25.3552 34.9089 24.5224V15.7314C34.9089 14.9911 34.5443 14.2508 33.8151 13.7881L26.4323 9.43881Z" fill="#7927FF"/>
</g>
<defs>
<clipPath id="clip0">
<rect width="35" height="31" fill="white"/>
</clipPath>
</defs>
</svg>
