<svg width="16" height="16" viewBox="0 0 16 16" fill="none" xmlns="http://www.w3.org/2000/svg">
<path d="M8 0L9.40465 0.938346L11.0615 0.608964L12.0001 2.01342L13.6569 2.34315L13.9866 3.99989L15.391 4.93853L15.0617 6.59535L16 8L15.0617 9.40465L15.391 11.0615L13.9866 12.0001L13.6569 13.6569L12.0001 13.9866L11.0615 15.391L9.40465 15.0617L8 16L6.59535 15.0617L4.93853 15.391L3.99989 13.9866L2.34315 13.6569L2.01342 12.0001L0.608964 11.0615L0.938346 9.40465L0 8L0.938346 6.59535L0.608964 4.93853L2.01342 3.99989L2.34315 2.34315L3.99989 2.01342L4.93853 0.608964L6.59535 0.938346L8 0Z" fill="#1AACFF"/>
<path d="M5.33325 7.40784L7.46659 9.77821L10.6666 6.22266" stroke="white" stroke-width="2"/>
</svg>
